/* XPM */
static char *result[] = {
/* columns rows colors chars-per-pixel */
"32 32 34 1 ",
"  c #8AA178",
". c #8EA57C",
"X c #8FA87D",
"o c #91A97F",
"O c #93AB81",
"+ c #94AD82",
"@ c #95AD83",
"# c #96AF84",
"$ c #9EBC86",
"% c #9EBD87",
"& c #9DBE86",
"* c #9EBF86",
"= c #9EB688",
"- c #9EB788",
"; c #9CB48A",
": c #9DB888",
"> c #9DB988",
", c #9CBA88",
"< c #9DBB88",
"1 c #9FBA8C",
"2 c #A0BB8C",
"3 c #A1BA8D",
"4 c #A1BD8C",
"5 c #A2BE8C",
"6 c #A2BE8D",
"7 c #A3C18D",
"8 c #A4C28E",
"9 c #A5C68D",
"0 c #A7C68E",
"q c #A8CA8E",
"w c #A9CB8F",
"e c #A9CD8F",
"r c #ACD190",
"t c #B0D892",
/* pixels */
";;;;7;;;;;;;;;;;;;;;;;;;9;;;;;;;",
";9;;2;;9;;;;;;;;;;;;;9;;2;;9;e;;",
";2;;;;;2;;tt8;;;9;;9;2;;;;;;7;;;",
";2;;;tt;;;r**-;;9;;2;;;rtt;5;7;;",
";;;;t*t;;;. *<;;2;;;;;<**w;;;tw;",
";;;t** ;;;;; o;;;;;;;;*  .;;t*%;",
";;;   ;;;;;;;;;;ttt;;; ;;;;;o o;",
";;;tt;;;q;7;;9;;t%<;wt;;;;7;;;;;",
"t****;;;6;;9;2;;<,*<<r;;;;;;;;q;",
"* ***;;;2;;2;2;;O * *o;;;tw;;;2;",
" ;** ;;;;;;;;;;;;; ; ;;9;r*<;;2;",
";;  ;;;;trr;;wr;9;;;;;;2;.%>%;;;",
";;;;;;;;r&<*%%w;7;;r;;;;;;o. ;;;",
";;;;9;;;+$*%%%.;;;;%rw;;9;;;;;;;",
";;;;2;;;;X*% +;;9;;.<<;;2;;;;;;;",
";;;;;;;;;;  ;;;;2;;;O#;;2;;;t;;;",
";;t8;;;;;;;;;;;;;;;;;;;;;trr<;;;",
";;**w;;;9;;;;;;;;r;;;;;;; %%o;;;",
";; **r;;2;;;;t;;*.;;;9;;;;..;;;;",
";;;  *;;;;;;;%,;*;;;;2;;;;;;;;;;",
"3;;;; ;;;;9;;O***;;;;;;;;;0r;;;;",
";;;;;;;;;;2;;;.*.;;;04;;;r<0;;;;",
";;;9;;t;;;;;;;; ;;;;0*-;0*<.;;9;",
";;;2;;%r;t;;;;;;;9;; >***: ;;;2;",
";;9;;;<*w*;;;9;;;22;;O =,:O;;;2;",
";;2;;;.**.;7;2;;;;2;;;;. .;;;;;;",
";;2;;;;o*.;2;;;t;;;;;;;;;;;;9;;;",
";;;;;9;;O;;;;;; w;wt;;;;;;;;1;;;",
";tt;;2;;;;;;9;;#<<* ;9;9;;;;2;;;",
";.*t;;;9;;9;2;;;.,O;;2;2;;;;;;;;",
";@*.;;;2;;2;2;;;;.;;;2;2;;;;tw;;",
";; ;;;;;;;;;;;;;;;;;;;;;;;;;;<%,"
};
