/* XPM */
static char * beer_xpm[] = {
"32 32 33 1",
" 	c #9CB48A",
".	c #A3C18D",
"+	c #A5C68D",
"@	c #A0BB8C",
"#	c #A9CD8F",
"$	c #FFE6A1",
"%	c #B0D892",
"&	c #A4C28E",
"*	c #ACD190",
"=	c #A2BE8C",
"-	c #9DBB88",
";	c #9EBF86",
">	c #A9CB8F",
",	c #8AA178",
"'	c #8EA57C",
")	c #9EBD87",
"!	c #91A97F",
"~	c #D7A926",
"{	c #848484",
"]	c #A8CA8E",
"^	c #C6C6C6",
"/	c #FFC82D",
"(	c #9DB988",
"_	c #96AF84",
":	c #A1BA8D",
"<	c #A7C68E",
"[	c #A1BD8C",
"}	c #9EB788",
"|	c #9DB888",
"1	c #93AB81",
"2	c #9EB688",
"3	c #9CBA88",
"4	c #95AD83",
"    .                   +       ",
" +  @  +             +  @  + #  ",
" @     $  %%&$$ +  + @      .   ",
" @   %$$$ *$$$$$$$$@   *%% = .  ",
"    $$$$$$$$$$$$$$$$  -;;>   %> ",
"   %$$$$$$$$$$$$$$$$$ ;,,'  %;) ",
"   ,$$$$$$$$$$$$$$$$$ ,     !,! ",
"   $$$$$$$$$$$$$$$$$$%    .     ",
"%;;$$$~$$$~$~$$~$~$$~{        ] ",
";,$$$$~$$$~~~~$~~~~$~{^^^^^^^^@ ",
", $$$$~$$$~~~~~~~~~~~{^^^^^^^^@ ",
"  ,, ~~~$~//~~//~~///{ @ ')(^^  ",
"     //~~~//~~//~~///     !'^^  ",
"    +///~~//~~//~~///>  +   ^^  ",
"    @///~~//~~//~~///-  @   ^^  ",
"     ///~~//~~//~~///_  @   ^^  ",
"  %& ///~~//~~//~~///    %**^^  ",
"  ;;>///~~//~~//~~///    ,))^^  ",
"  ,;;///~~//~~//~~///+    ''^^  ",
"   ,,///~~//~~//~~///@      ^^  ",
":    ///~~//~~//~~///     <*^^  ",
"     ///~~//~~//~~///[   *-<^^  ",
"   + ///~~//~~//~~///;} <;-'^^+ ",
"   @ ///~~//~~//~~///(;;;|, ^^@ ",
"  +  ///~~//~~//~~///1,23|1 ^^@ ",
"  @  ///~~//~~//~~///  ','  ^^  ",
"  @  ////////////////{      ^^  ",
"     ^^////////////^^{^^^^^^^^  ",
" %%  ^^^//////////^^^{^^^^^^^^  ",
" ';% ^^^^////////^^^^{ @        ",
" 4;' ^^^^^^^^^^^^^^^^@ @    %>  ",
"  ,  ^^^^^^^^^^^^^^^^        -)3"};
