/* XPM */
static char * exit_xpm[] = {
"32 32 30 1",
" 	c #9CB48A",
".	c #A3C18D",
"+	c #A5C68D",
"@	c #A0BB8C",
"#	c #A9CD8F",
"$	c #B0D892",
"%	c #A4C28E",
"&	c #ACD190",
"*	c #9EBF86",
"=	c #9EB788",
"-	c #A2BE8C",
";	c #8EA57C",
">	c #8AA178",
",	c #9DBB88",
"'	c #A9CB8F",
")	c #91A97F",
"!	c #9EBD87",
"~	c #000000",
"{	c #A8CA8E",
"]	c #6B3620",
"^	c #9C5A3C",
"/	c #9DB988",
"(	c #FFC20E",
"_	c #A1BA8D",
":	c #A7C68E",
"<	c #93AB81",
"[	c #9FBA8C",
"}	c #96AF84",
"|	c #9CBA88",
"1	c #95AD83",
"    .                   +       ",
" +  @  +             +  @  + #  ",
" @     @  $$%   +  + @      .   ",
" @   $$   &**=  +  @   &$$ - .  ",
"    $*$   ;>*,  @     ,**'   $' ",
"   $**>     >)        *>>;  $*! ",
"   >>>    ~~~~~~~~~~~~>     )>) ",
"   $$   {~~]^]^~~^]^]~~   .     ",
"$****   ~~^]^]^~~^]^]^~~      { ",
"*>***  ~~]^]^]^~~^]^]^]~~$'   @ ",
"> **> ~~^]^]^]^~~^]^]^]^~~*,  @ ",
"  >>  ~]^]^]^]^~~^]^]^]^]~!/!   ",
"      ~]^]^]^]^~~^]^]^]^]~);>   ",
"    + ~]^]^]^]^~~^]^]^]^]~      ",
"    @ ~]^]^]^]^~~^]^]^]^]~      ",
"      ~]^]^]^]^~~^]^]^]^]~  $   ",
"  $%  ~]^]^(((^~~^(((^]^]~&&,   ",
"  **' ~]^]^(^(^~~^(^(^]^]~!!)   ",
"  >**&~]^]^(((^~~^(((^]^]~;;    ",
"   >>*~]^]^]^]^~~^]^]^]^]~      ",
"_    >~]^]^]^]^~~^]^]^]^]~:&    ",
"      ~]^]^]^]^~~^]^]^]^]~,:    ",
"   +  ~]^]^]^]^~~^]^]^]^]~,;  + ",
"   @  ~]^]^]^]^~~^]^]^]^]~>   @ ",
"  +   ~]^]^]^]^~~^]^]^]^]~<   @ ",
"  @   ~]^]^]^]^~~^]^]^]^]~      ",
"  @   ~~~~~~~~~~~~~~~~~~~~  +   ",
"     +  <      >' '$        [   ",
" $$  @      +  },,*> + +    @   ",
" ;*$   +  + @   ;|<  @ @        ",
" 1*;   @  @ @    ;   @ @    $'  ",
"  >                          ,!|"};
