/* XPM */
static char * Player_xpm[] = {
"32 32 34 1",
" 	c #9CB48A",
".	c #A3C18D",
"+	c #A5C68D",
"@	c #A0BB8C",
"#	c #A9CD8F",
"$	c #B0D892",
"%	c #A4C28E",
"&	c #ACD190",
"*	c #9EBF86",
"=	c #000000",
"-	c #A2BE8C",
";	c #663931",
">	c #8F563B",
",	c #A9CB8F",
"'	c #8AA178",
")	c #8EA57C",
"!	c #9EBD87",
"~	c #91A97F",
"{	c #EEC39A",
"]	c #A8CA8E",
"^	c #D9A066",
"/	c #9DBB88",
"(	c #9DB988",
"_	c #D77BBA",
":	c #AC3232",
"<	c #A1BA8D",
"[	c #A7C68E",
"}	c #9EB788",
"|	c #9DB888",
"1	c #9EB688",
"2	c #9CBA88",
"3	c #93AB81",
"4	c #9FBA8C",
"5	c #95AD83",
"    .                   +       ",
" +  @  +             +  @  + #  ",
" @     @  $$%   +  + @      .   ",
" @   $$   &**==========&$$ - .  ",
"    $*$ ======;;;;;>;;=**,   $, ",
"   $**'===;>;;>>>;;>>;='')  $*! ",
"   ''' =;;;>>;;;>;=====     ~'~ ",
"   $$  ===;========{==    .     ",
"$****  ====={{{{{{{{==        ] ",
"*'***   ={{{{{{{{{{{=~   $,   @ ",
"' **'  ==^{{{={{{{={=  + &*/  @ ",
"  ''   ==^{{{{{{{{{{=  @ )!(!   ",
"        =^^^{{{__{{==     ~)'   ",
"    +   ===^^^{{{{==&,  +       ",
"    @  ==============/  @       ",
"      ==::::::::::::==  @   $   ",
"  $%  =::=::=====:=::=   $&&/   ",
"  **, =::=::=:=:=:=::=   '!!~   ",
"  '**&=::=::=====:=::=    ))    ",
"   ''*=::=:::=:=::=::=          ",
"<    '=::=::::::::=::=    [&    ",
"      =::==========::=   &/[    ",
"   +  ================} [*/)  + ",
"   @  ={{=========={{=***|'   @ ",
"  +   ==== ======@===='12|3   @ ",
"  @   )**) ==@ == @    )')      ",
"  @    ~*) ==  ==           +   ",
"     +  3  ==  == ,$        4   ",
" $$  @   ====  ====' + +    @   ",
" )*$   +=====  ===== @ @        ",
" 5*)   @=====  ===== @ @    $,  ",
"  '                          /!2"};
