/* XPM */
static char *_c9bceb939ae4773f0cf2f089f147aa4v3DEP0MTTDvbUUBj[] = {
/* columns rows colors chars-per-pixel */
"32 32 104 2 ",
"   c None",
".  c #A7A08F",
"X  c #A8A190",
"o  c #ABA591",
"O  c #ADA791",
"+  c #ADA794",
"@  c #AFA996",
"#  c #AFAA97",
"$  c #B3AD9A",
"%  c #B2AD9B",
"&  c #B6B09C",
"*  c #B7B19D",
"=  c #BAB3A1",
"-  c #B9B3A3",
";  c #BCB5A4",
":  c #BDB7A4",
">  c #BEB7A6",
",  c #BFB8A7",
"<  c #C0B9A9",
"1  c #C0BAA9",
"2  c #C1BAA9",
"3  c #C1BBAB",
"4  c #C2BCAB",
"5  c #C2BCAC",
"6  c #C3BDAC",
"7  c #C5BEAE",
"8  c #C6C0AF",
"9  c #C6C0B0",
"0  c #C7C0B0",
"q  c #C7C1B0",
"w  c #C7C1B1",
"e  c #C8C1B1",
"r  c #C8C2B1",
"t  c #C9C2B1",
"y  c #C8C1B2",
"u  c #C9C3B3",
"i  c #CAC3B3",
"p  c #CAC4B4",
"a  c #CBC4B4",
"s  c #CAC4B5",
"d  c #CBC5B5",
"f  c #CCC6B6",
"g  c #CDC7B7",
"h  c #CEC8B8",
"j  c #CFC8B8",
"k  c #CFC9B9",
"l  c #CFC9BA",
"z  c #D0CABA",
"x  c #D0CABB",
"c  c #D1CABB",
"v  c #D1CBBB",
"b  c #D2CCBA",
"n  c #D1CBBC",
"m  c #D3CDBE",
"M  c #D5CEBC",
"N  c #D5CEBF",
"B  c #D5CFC0",
"V  c #D6D0C1",
"C  c #D6D0C2",
"Z  c #D7D1C2",
"A  c #D7D1C3",
"S  c #D8D2C3",
"D  c #D9D2C3",
"F  c #D9D3C4",
"G  c #D9D3C5",
"H  c #DBD5C5",
"J  c #DCD6C5",
"K  c #DFD7C4",
"L  c #DED7C8",
"P  c #DCD8C9",
"I  c #DFD8C8",
"U  c #DED9CB",
"Y  c #E0D9C7",
"T  c #E2DBC9",
"R  c #E1DCCB",
"E  c #E1DCCD",
"W  c #E3DCCC",
"Q  c #E3DECE",
"!  c #E6DFCC",
"~  c #E3DED0",
"^  c #E6DFD0",
"/  c #E7E3D1",
"(  c #E7E2D4",
")  c #E9E4D3",
"_  c #EDE6D3",
"`  c #EAE5D6",
"'  c #ECE8D8",
"]  c #EFEAD9",
"[  c #EEEADA",
"{  c #F3EBD5",
"}  c #F3EBD6",
"|  c #F0EBDA",
" . c #F0EBDB",
".. c #F2ECD9",
"X. c #F0ECDB",
"o. c #F4ECD8",
"O. c #F4EEDB",
"+. c #F4EFDB",
"@. c #F0ECDC",
"#. c #F4EEDC",
"$. c #F4EFDD",
"%. c #F4EFDE",
"&. c #F4EFDF",
"*. c #F4EFE1",
/* pixels */
"                                                                ",
"                                                                ",
"                                                                ",
"                                                                ",
"                                                                ",
"                                                                ",
"                                                                ",
"                                                                ",
"                                                                ",
"                    J _ ! Y Y Y Y E b                           ",
"                M ! O.} o.&.} } } } } / J                       ",
"              8 E } } O.o.} O.} O.} } O.O.y                     ",
"            6 s n T @.} +.%.&.*.%.&.} ! n s f                   ",
"            6 U ) n n n v < u s n s y F ^ ( ~ l                 ",
"          1 u ) .. .D B v u 0 0 G U U ^ ~ ) ' ( f               ",
"          1 F U @. ...^ j j u h U ~ ~ ~ ~ ^ ' ' ( f             ",
"          1 n E ..@.' U A A 0 h h S U ~ ~ ( ` ' @.U 3           ",
"          + ; J E T T M f h B A S ~ U U ( ) ' @.` U -           ",
"            X & , , 0 u 0 s f n s n A P L U ( ( U S %           ",
"              . @ o & 7 0 0 s 0 h ; 1 ; 1 s h 4 6 #             ",
"                  O O & & = = = = ; = , $ $ $ $                 ",
"                        O O O O O O O O                         ",
"                                                                ",
"                                                                ",
"                                                                ",
"                                                                ",
"                                                                ",
"                                                                ",
"                                                                ",
"                                                                ",
"                                                                ",
"                                                                "
};
