/* XPM */
static char *_ff7cd3b1853483b83866c1ec57c3447v0LSPgqhWHYUQ7HM[] = {
/* columns rows colors chars-per-pixel */
"32 32 156 2 ",
"   c None",
".  c #A9A28F",
"X  c #ABA590",
"o  c #ABA593",
"O  c #ADA791",
"+  c #ABA595",
"@  c #AEA897",
"#  c #B2AC98",
"$  c #B2AC9B",
"%  c #B4AE9A",
"&  c #B3AD9D",
"*  c #B6B09C",
"=  c #B9B1A0",
"-  c #B9B3A2",
";  c #BCB5A3",
":  c #BBB4A5",
">  c #BDB6A7",
",  c #C0B9A8",
"<  c #C2BBAA",
"1  c #C3BCAB",
"2  c #C3BCAC",
"3  c #C4BDAC",
"4  c #C4BDAD",
"5  c #C5BEAE",
"6  c #C5BFAE",
"7  c #C6BFAE",
"8  c #C6BFAF",
"9  c #C8BFB0",
"0  c #C7C0AE",
"q  c #C6C0AF",
"w  c #C7C0AF",
"e  c #C7C1B0",
"r  c #C9C0B0",
"t  c #C8C1B0",
"y  c #C8C1B1",
"u  c #CBC2B1",
"i  c #C9C2B3",
"p  c #C9C3B3",
"a  c #CAC3B3",
"s  c #CAC4B2",
"d  c #CBC4B3",
"f  c #CDC4B4",
"g  c #CDC6B5",
"h  c #CCC5B6",
"j  c #CDC6B7",
"k  c #CFC8B6",
"l  c #CFC8B7",
"z  c #CDC7B8",
"x  c #D0C7B6",
"c  c #D0C9B8",
"v  c #D2C9B8",
"b  c #D1CAB8",
"n  c #D2CAB9",
"m  c #D2CABA",
"M  c #D2CBBA",
"N  c #D3CBBA",
"B  c #D2CBBB",
"V  c #D3CBBB",
"C  c #D4CDBB",
"Z  c #D1CBBC",
"A  c #D2CBBC",
"S  c #D2CCBD",
"D  c #D4CDBD",
"F  c #D6CEBC",
"G  c #D6CEBD",
"H  c #D6CFBD",
"J  c #D6CFBE",
"K  c #D6CFBF",
"L  c #D7CFBF",
"P  c #D8D1BF",
"I  c #D9D1BF",
"U  c #D9D2BF",
"Y  c #D7D0C0",
"T  c #D8D0C0",
"R  c #D8D1C0",
"E  c #D8D1C1",
"W  c #D9D2C0",
"Q  c #D9D2C1",
"!  c #DAD2C1",
"~  c #DBD4C2",
"^  c #DCD5C2",
"/  c #DCD5C3",
"(  c #DDD6C3",
")  c #DED6C3",
"_  c #D9D3C5",
"`  c #DBD5C4",
"'  c #DBD4C5",
"]  c #DED6C4",
"[  c #DFD7C4",
"{  c #DED6C5",
"}  c #DED7C7",
"|  c #DED8C7",
" . c #DED9C7",
".. c #E1D9C5",
"X. c #E0D9C7",
"o. c #E1D9C7",
"O. c #E1DAC6",
"+. c #E2DAC6",
"@. c #E0D9C8",
"#. c #E1DAC8",
"$. c #E2DAC8",
"%. c #E2DBC9",
"&. c #E3DBC9",
"*. c #E1DACA",
"=. c #E1DACB",
"-. c #E0DBCB",
";. c #E3DBCA",
":. c #E3DCC9",
">. c #E3DCCB",
",. c #E4DCC8",
"<. c #E4DCC9",
"1. c #E5DDCA",
"2. c #E5DECA",
"3. c #E6DECA",
"4. c #E6DECB",
"5. c #E3DECC",
"6. c #E5DDCC",
"7. c #E6DFCC",
"8. c #E5DDCE",
"9. c #E6DFCF",
"0. c #E7E0CD",
"q. c #E7E0CE",
"w. c #E9E1CD",
"e. c #E8E0CE",
"r. c #E8E1CE",
"t. c #EAE2CE",
"y. c #EAE2CF",
"u. c #EAE3D0",
"i. c #EAE2D1",
"p. c #EBE4D1",
"a. c #ECE4D2",
"s. c #EDE6D2",
"d. c #EEE6D2",
"f. c #EFE7D4",
"g. c #F0E8D4",
"h. c #F0E8D5",
"j. c #F1E9D6",
"k. c #F1E9D7",
"l. c #F2EAD7",
"z. c #F2EAD8",
"x. c #F3EBD8",
"c. c #F3EBD9",
"v. c #F4ECD8",
"b. c #F5EDD9",
"n. c #F4ECDA",
"m. c #F4EEDA",
"M. c #F4EFDB",
"N. c #F5EFDB",
"B. c #F4EFDC",
"V. c #F5EFDC",
"C. c #F4EFDD",
"Z. c #F5EFDD",
"A. c #F4EFDE",
"S. c #F5EFDE",
"D. c #F4EFDF",
"F. c #F5EFE1",
/* pixels */
"                                                                ",
"                                                                ",
"                                                                ",
"                                                                ",
"                                                                ",
"                                                                ",
"                              O.O.O.~ ~                         ",
"                            ] v.d.v.v.v.2.                      ",
"                          %.v.v.v.v.v.v.x.2.! 2.C               ",
"                    G M S G v.v.v.v.v.v.x.b.b.b.v.~             ",
"                  ) v.O.c G h n.v.v.v.v.x.x.b.b.v.v.)           ",
"                P 2.v.v.8 8 h z h h v.v.N.N.B.v.B.v.2.          ",
"              G 2.v.v.v.v.S h  .y.T h h ..) B.F.B.h h           ",
"            ] v.v.v.v.v.v.O.G q.d.u.T h 1 d P G M M ' q         ",
"          G v.v.v.v.v.v.v.2.G j.A.A.q.h M T 8.2.2.9.q.S 8       ",
"          G v.v.v.v.v.v.v.8.Y j.n.F.>.; d.g.j.j.f.y.%.2.8       ",
"        k v.v.v.v.v.v.v.f. .G f.f.x.G , d.j.x.n.n.v.,.O._ 8     ",
"        k d.v.v.v.N.v.v.d. .T O.q. .q S v.v.v.C.v.v.y.%.A ,     ",
"        s ) 2.y.g.v.v.w.) M c 8 8 2 e v.v.v.v.N.C.n.y.O.A ;     ",
"          8 M ] ) .. .T h T 8 8 i i v.v.v.v.v.v.C.j.y.O.i ;     ",
"          e h Y G T ] h h a.} 8 * c x.d.v.v.x.v.b.q.9.2.u ;     ",
"            e h %.Y T 8 A A 9.d ; 2 M y.v.v.x.g.d.O.%.C 8 ;     ",
"            # i ] u.8.q.q.q.%.h T i , 2.2.y.y.y.y.8.8.c M       ",
"              O & % % % % # p 1 8 z : - c 2.O.O.:.P h d O       ",
"                            O O O 1 i # @ + & & - 3 # O         ",
"                                  O O o . o * * # O             ",
"                                                                ",
"                                                                ",
"                                                                ",
"                                                                ",
"                                                                ",
"                                                                "
};
