/* XPM */
static char *e031a96184424d4eba7d11a728e9ef1b3g4T79u37MJqohaf[] = {
/* columns rows colors chars-per-pixel */
"32 64 135 2 ",
"   c None",
".  c #6E4E35",
"X  c #735237",
"o  c #775438",
"O  c #7B563A",
"+  c #7B5A3C",
"@  c #845C3C",
"#  c #8C603F",
"$  c #8F6545",
"%  c #946441",
"&  c #9B6C49",
"*  c #A3704B",
"=  c #AB7751",
"-  c #AD7953",
";  c #B07B54",
":  c #578D71",
">  c #598E72",
",  c #5B9275",
"<  c #5E9779",
"1  c #5E997B",
"2  c #619C7D",
"3  c #62A07F",
"4  c #B78059",
"5  c #639F80",
"6  c #64A383",
"7  c #68A485",
"8  c #66A986",
"9  c #69A887",
"0  c #67AB89",
"q  c #69AD8A",
"w  c #6CB18D",
"e  c #6EB591",
"r  c #6EB994",
"t  c #73B693",
"y  c #70BD96",
"u  c #74BD97",
"i  c #71BA95",
"p  c #76BB98",
"a  c #71BF98",
"s  c #73BF99",
"d  c #74BD98",
"f  c #74BE98",
"g  c #75BF99",
"h  c #77BE99",
"j  c #77BF9B",
"k  c #74BE99",
"l  c #78BF9B",
"z  c #78BF9C",
"x  c #6FC69A",
"c  c #70C198",
"v  c #73C19A",
"b  c #74C099",
"n  c #75C19B",
"m  c #76C39A",
"M  c #76C29B",
"N  c #71C49A",
"B  c #73C49B",
"V  c #71C69B",
"C  c #76C39C",
"Z  c #77C39D",
"A  c #77C49D",
"S  c #74C79C",
"D  c #74C79D",
"F  c #74C79F",
"G  c #75C29B",
"H  c #78C09A",
"J  c #79C19D",
"K  c #7BC19D",
"L  c #78C29D",
"P  c #79C39D",
"I  c #7AC59E",
"U  c #79C69E",
"Y  c #7BC69F",
"T  c #79C59E",
"R  c #75C99F",
"E  c #76C7A0",
"W  c #78C7A0",
"Q  c #7CC6A0",
"!  c #7CC7A0",
"~  c #7CC6A1",
"^  c #7CC7A1",
"/  c #7EC7A2",
"(  c #7FC7A2",
")  c #7BC7A1",
"_  c #78C9A1",
"`  c #7BC8A1",
"'  c #7AC9A1",
"]  c #78CAA0",
"[  c #7ACAA0",
"{  c #7BCAA2",
"}  c #7DC8A2",
"|  c #7CC9A3",
" . c #7EC9A2",
".. c #7FC8A3",
"X. c #7EC9A3",
"o. c #7DCAA3",
"O. c #7BCDA2",
"+. c #7DCAA4",
"@. c #7CCBA4",
"#. c #7ECBA4",
"$. c #7CCCA4",
"%. c #7ECCA4",
"&. c #7ECCA5",
"*. c #7FCCA5",
"=. c #7FCDA5",
"-. c #7DCFA4",
";. c #7CCEA5",
":. c #7ECEA5",
">. c #7FCDA6",
",. c #7DCFA6",
"<. c #7ECEA6",
"1. c #7FCFA6",
"2. c #7FCFA7",
"3. c #7CCBA3",
"4. c #7FD1A6",
"5. c #7CD1A5",
"6. c #80CBA5",
"7. c #81CCA6",
"8. c #80CDA6",
"9. c #82CDA7",
"0. c #81CEA7",
"q. c #81CFA7",
"w. c #80CEA6",
"e. c #83CFA8",
"r. c #80D0A7",
"t. c #80D0A8",
"y. c #81D1A8",
"u. c #81D1A9",
"i. c #82D0A8",
"p. c #82D0A9",
"a. c #83D1A9",
"s. c #83D3AA",
"d. c #84D0A9",
"f. c #85D1AA",
"g. c #81D3A8",
/* pixels */
"                                                                ",
"                                                                ",
"                                                                ",
"                                                                ",
"                                                                ",
"                                                                ",
"                              6 q 8                             ",
"                          8 t n E A r                           ",
"                      8 8 r Z >.f.4.>.q q                       ",
"                    2 q t ) e.e.7.i.f.>.O.q 6                   ",
"                    6 w s @.e.e.7.7.7.i.] O.x                   ",
"                  6 t q d ~ e.7.s.7.>.>.V V y 6                 ",
"                7 t t l i J e.f.6...7.-.s r w 8                 ",
"                p t l K e z A #.-.>...r e q 8 5                 ",
"              7 K 6.l i w w i d y d t w 8 5 2 < ,               ",
"            7 6.6.6...t q 0 6 0 8 6 8 8 1 6 1 2 2               ",
"            t >.d.i.~ i 9 2 6 8 8 5 6 1 2 1 6 8 6 1             ",
"            t 6.>.7...t w 2 6 8 6 6 6 3 6 6 8 8 w r 8           ",
"          w Y ..f.d.~ p 9 2 6 5 8 8 8 6 5 8 9 s B _ V 5         ",
"          w >.>.f.i.6.H 3 2 6 8 8 1 < 1 8 q r N >.s.[ E         ",
"          9 ..s.7.7...w 2 , 2 3 w w 8 1 6 q y >.>.-..._ q       ",
"          7 H Y f...w 2 < 1 w c c e w < 6 q y @.s.>.-.[ r       ",
"            t t 9 2 6 1 1 w U >.O.V r 1 6 0 r s >.2._ Z 2       ",
"        2 1 2 2 2 2 1 < 2 i >.-.>.5.Z q < 5 e r y N s d 1       ",
"        1 > > , , 2 , 2 8 J ..>.>.#.Z 8 7 1 7 w e t e q 1       ",
"      1 , > 2 > , , , , 8 p ....-.[ n 8 5 < 1 8 8 6 2 < ,       ",
"      2 1 , 2 1 2 , , , 6 e J ~ U d e 8 8 1 < < > < 1 2 2       ",
"    < 1 8 e r r 9 , , , 1 9 e t t e 8 9 6 2 1 < 1 < 1 6 0 1     ",
"    2 9 r r n m h 5 < 1 > 1 8 6 8 8 6 < 5 2 2 < > 6 8 e d q     ",
"    9 w y [ >.#.J t 2 1 > > 1 6 2 1 5 5 q 7 q 1 5 7 e s [ #.t   ",
"  6 q i J [ >.>.7.r 2 5 1 > > : > < 2 7 q q q 7 1 7 r E ~ ) e   ",
"  5 w d [ ..[ #.>.r 5 2 < , , > > > 2 2 w e 8 8 > 1 9 k W ~ q   ",
"  5 i n U ....O.O.w 6 1 1 1 : 1 1 2 2 6 9 8 8 8 2 , 8 q p h 2   ",
"  6 e d N U [ Y r 0 1 1 1 , , 1 8 w w r s t q 6 w 6 8 1 7 q 2   ",
"  5 w y d d y r w 3 1 , : : , 3 w r N ) A ) r r 6 w w 1 2 ,     ",
"    9 e i r w w 0 1 1 1 , 1 < 0 r s _ ;.@.[ _ s 1 r w 8 6 ,     ",
"    5 6 w w w 8 < < , 1 3 5 3 w i n [ ..>.7.>.;.N r 0 6 <       ",
"      , , < : : : : , < 1 8 8 8 r n V >.4.>.>.4.U e 0 :         ",
"              : : , , , 6 8 8 w q r A O.4.>.4.5.A r < :         ",
"                    > , 6 6 8 , , r r N E 5.O._ e 1 ,           ",
"                    , : < 6 6 , > 6 q i i y i w 1 ,             ",
"                      > > : : > > > 1 , < < 1 <                 ",
"                        o . . . X . X +                         ",
"                        O X . . . X + ; ;                       ",
"                      * o @ * o X * X = ;                       ",
"                  * * o X % * @ @ ; ; X X - ;                   ",
"                % * * X @ = ; & @ @ 4 $ . X * = % -             ",
"          * = * @ O X X % = = * % @ - *     . . X . X           ",
"          @ X X X o o X @ & O # % $ @ = = *                     ",
"                      & & @ o X @ X . @ @ & * =                 ",
"                  * = & @ @           . . X @ & &               ",
"                  @ +                         . @               ",
"                                                                ",
"                                                                ",
"                                                                ",
"                                                                ",
"                                                                ",
"                                                                ",
"                                                                ",
"                                                                ",
"                                                                ",
"                                                                ",
"                                                                ",
"                                                                "
};
