/* XPM */
static char *_fdfb7d68d0c4ec4e4978befd5b2ecebqcQrWLVjOIos9eWl[] = {
/* columns rows colors chars-per-pixel */
"32 64 256 2 ",
"   c None",
".  c #6A492F",
"X  c #6D4A30",
"o  c #6B4C34",
"O  c #6D4E35",
"+  c #6F4E36",
"@  c #704D33",
"#  c #734E34",
"$  c #734F34",
"%  c #704F36",
"&  c #6B5338",
"*  c #775136",
"=  c #755237",
"-  c #785136",
";  c #7A5337",
":  c #785539",
">  c #7B5539",
",  c #7B553A",
"<  c #7C5438",
"1  c #82593A",
"2  c #815A3B",
"3  c #855B3C",
"4  c #8A5E3D",
"5  c #885E3E",
"6  c #8E613F",
"7  c #8D6140",
"8  c #916340",
"9  c #906341",
"0  c #916441",
"q  c #916442",
"w  c #936542",
"e  c #946441",
"r  c #926544",
"t  c #956746",
"y  c #956845",
"u  c #956847",
"i  c #9B6A47",
"p  c #9F6E4A",
"a  c #A26E4B",
"s  c #A6734E",
"d  c #AA734C",
"f  c #AA7650",
"g  c #AF7A53",
"h  c #548C6F",
"j  c #568D70",
"k  c #578E72",
"l  c #598E72",
"z  c #588F73",
"x  c #599073",
"c  c #589173",
"v  c #5A9175",
"b  c #599375",
"n  c #5B9276",
"m  c #5C9175",
"M  c #5A9477",
"N  c #5B9777",
"B  c #5C9477",
"V  c #5D9577",
"C  c #5B9778",
"Z  c #5D9779",
"A  c #5E957A",
"S  c #5D977B",
"D  c #5C987A",
"F  c #5C997A",
"G  c #5D997A",
"H  c #5E987A",
"J  c #5D9A7A",
"K  c #5E9A7A",
"L  c #5E9A7B",
"P  c #5E9B7B",
"I  c #5D997C",
"U  c #5F997C",
"Y  c #5F9C7C",
"T  c #5F9C7E",
"R  c #60967B",
"E  c #61977B",
"W  c #60987A",
"Q  c #62987C",
"!  c #62987D",
"~  c #609A7D",
"^  c #63997E",
"/  c #649A7F",
"(  c #619C7E",
")  c #609D7F",
"_  c #639C7E",
"`  c #639C7F",
"'  c #61A07F",
"]  c #63A07F",
"[  c #659B80",
"{  c #639C80",
"}  c #629D80",
"|  c #619E80",
" . c #639E80",
".. c #629F80",
"X. c #629F81",
"o. c #649D80",
"O. c #659D80",
"+. c #669C81",
"@. c #649F82",
"#. c #699F84",
"$. c #63A081",
"%. c #61A381",
"&. c #63A082",
"*. c #63A182",
"=. c #63A383",
"-. c #65A083",
";. c #67A083",
":. c #65A383",
">. c #65A583",
",. c #67A583",
"<. c #63A384",
"1. c #66A184",
"2. c #65A284",
"3. c #65A384",
"4. c #67A384",
"5. c #64A584",
"6. c #66A584",
"7. c #66A585",
"8. c #67A586",
"9. c #69A084",
"0. c #69A284",
"q. c #68A384",
"w. c #68A385",
"e. c #68A386",
"r. c #68A585",
"t. c #68A586",
"y. c #69A586",
"u. c #6BA587",
"i. c #68A787",
"p. c #65A884",
"a. c #67A887",
"s. c #67A987",
"d. c #69A887",
"f. c #6CA588",
"g. c #6CA788",
"h. c #6DA789",
"j. c #6FA78A",
"k. c #67AD8A",
"l. c #68A988",
"z. c #6BA888",
"x. c #6AA988",
"c. c #6BA889",
"v. c #6AA989",
"b. c #68AA88",
"n. c #6AAA88",
"m. c #6AAA89",
"M. c #6DA88A",
"N. c #6CA98A",
"B. c #6DAA8A",
"V. c #6CAB8B",
"C. c #68AC89",
"Z. c #68AC8A",
"A. c #69AD8A",
"S. c #6AAC8A",
"D. c #6AAC8B",
"F. c #6BAD8B",
"G. c #6CAC8B",
"H. c #6DAD8B",
"J. c #6EAB8C",
"K. c #6BAD8C",
"L. c #6AAF8C",
"P. c #6BAF8C",
"I. c #6AAE8D",
"U. c #6EAC8C",
"Y. c #6FAC8C",
"T. c #6EAE8D",
"R. c #6DAF8E",
"E. c #6EAE8E",
"W. c #70AB8C",
"Q. c #70AD8D",
"!. c #69B08C",
"~. c #6CB18D",
"^. c #6CB08E",
"/. c #6DB18F",
"(. c #6EB08E",
"). c #6EB08F",
"_. c #6EB18F",
"`. c #6FB18F",
"'. c #6CB38F",
"]. c #70B08F",
"[. c #70B18F",
"{. c #72B08F",
"}. c #6DB390",
"|. c #6EB390",
" X c #6FB390",
".X c #6FB391",
"XX c #6CB490",
"oX c #6FB592",
"OX c #6FB593",
"+X c #6FB692",
"@X c #6EB792",
"#X c #6FB693",
"$X c #70B190",
"%X c #72B190",
"&X c #71B390",
"*X c #71B391",
"=X c #71B392",
"-X c #71B393",
";X c #70B491",
":X c #70B492",
">X c #70B493",
",X c #71B593",
"<X c #70B693",
"1X c #70B793",
"2X c #72B693",
"3X c #72B793",
"4X c #73B793",
"5X c #72B794",
"6X c #73B794",
"7X c #73B795",
"8X c #74B694",
"9X c #73B894",
"0X c #73B895",
"qX c #72B995",
"wX c #71BA95",
"eX c #70BB95",
"rX c #73B896",
"tX c #72B996",
"yX c #71BA96",
"uX c #70BB96",
"iX c #73BA96",
"pX c #72BB96",
"aX c #72BB97",
"sX c #74B896",
"dX c #74B996",
"fX c #74BB96",
"gX c #74BB97",
"hX c #73BC97",
"jX c #73BD97",
"kX c #72BE97",
"lX c #76BB98",
"zX c #73BD98",
"xX c #74BD98",
"cX c #74BE98",
"vX c #74BE99",
"bX c #75BF99",
"nX c #76BE99",
"mX c #77BF9A",
"MX c #74C099",
"NX c #74C09A",
"BX c #75C19B",
"VX c #76C09A",
"CX c #76C09B",
"ZX c #77C19B",
"AX c #74C29B",
"SX c #76C29B",
"DX c #76C29C",
"FX c #76C39C",
"GX c #77C39C",
"HX c #77C39D",
"JX c #77C49D",
"KX c #78C49D",
"LX c #78C49E",
"PX c #78C59E",
"IX c #7AC59F",
"UX c #79C69F",
/* pixels */
"                                                                ",
"                                                                ",
"                                                                ",
"                                                                ",
"                                                                ",
"                                                                ",
"                                                                ",
"                                                                ",
"                                                                ",
"            c.c.e.4.4.I     v A I.c.c.;.;.                      ",
"        ;.N.J.N._._.d.=.L x v ~ T.T.).>X_.r.g.                  ",
"    W.=XpXnXnXSXpXOX_.=.L j z G.=X=X8X}.=X=XlXmXdX              ",
"  N.=XdXSXSXJXJXSX=X8.O.Y N M ` _.=X:X8X8XnXFXSXJXxX            ",
"  T.8XFXAXJXLXIXFXT.O.r.L v Y ` 4.s.8X8XdXSXJXUXLXLXdXg.        ",
"c.8XvXnXAXJXFXFXpXT.~ S I L >.>.8...c.8XdXFXJXLXLXLXdXN.g.      ",
"T.pXvXFXAXvXFXjXOX8.O.A ` _.jX'._.r.e.}.8X8XSXLXLXSXjXQ.N.!     ",
"J.8XdXSXMXMXeX!.c.R / ~ =.xXAXAX'.'.W.Q.=XdXwXwXeXjXeXOX;.R     ",
"_.OXwXwXOX@X!.d.e.[ W L d.xXSXSXnXxXN.W.r.N.@X@X@X@X@X_.z.;.W   ",
"}.}.:XOX=XwXA.d.4.I L ..;.jXAXnXSXpXc.e.q.r.s.OXOX@XOXT.r.;._   ",
"c.OXOX_.:XOXs.Y L A [ ..A._.pX'.A.4.J.e.d.c.q.{.OX_._.8._ ;.O.  ",
"..T...F d.8...=.L L ~ Z.!.r.O.n [ ..4.pX_.'.:XW.u.N.O.~ ~ A R   ",
"A A C N v ` _ I L W ~ T.~.8.=.v I ~ A.nXSXSXZX;.~ / ~ O.~ ~ I   ",
"L B v x x / _.p.;.L R R 8.>.! v m ..OXjXSXnX_.;...A ;.=.8.{.OX! ",
"z v v j ~ pXpXjX:X;.z z m m l l O.O._.'.SXSXk.' =.A c.A.pXjXpX'.",
"  z R N.'.nXpXpX:X' x A S ! ! ! I ..<.}.}.}.c.=.v R d.A.pXnXAX`.",
"  z 8.r.A._.jXpX8.L W ~ X.4.@.........<.4...v m m m ..d.jXSXnXOX",
"    8.8.r.A.!.B L O.W ` }.lX'.Z.c.4.X...I ! ! S ! l m ..OX:XgX4.",
"        r.r.z x B W _ k.nXnXnXnX}.Z.S n A ! O.T.8X=X~ ! v c.I.  ",
"            z A B W ;.jXnXnXNXFX8X8.~ m n 4.>XnXnXvX:Xr.v l m   ",
"            v L ~ u.N.8XnXnXNXnXOX8.I L v J.:XvXnXSXdX_ ~ l     ",
"            I O.;.N.G.dXjXnXnXvX}.c.I A S J.=XgXSXnXI.I A       ",
"            ~ O.r.N.N.G.pXpX8X4.4...O.! ! O.T.=X8XpXA F z       ",
"              O.4.r.r.N.T.c.4.<._ v L _ m R A.G.O.l z h         ",
"              m ! O.;.c.;.O.A L m L A 8.8.B I I A h h z         ",
"                  R _ ` L M A z v L ~ 8.` M I M B h             ",
"                    m z B z & o z m I W z                       ",
"                          o o o - * > 1                         ",
"                          t > $ * * > 9 1                       ",
"                        i t 1 3 + > u t 1 s                     ",
"                        a w - a 4 p d 1 1 s g                   ",
"                        w @ 2 a f u 6 3 < 4 a                   ",
"                  a a a < $ w 1 f 7 0 4 1 - 1 a s               ",
"              1 1 1 1 - 4 f i - a ; 6 w i 1 < 1 w s s           ",
"                        s f 0 $ $ . * i s s - @ $ - 1 4         ",
"                      s f i 1 1     X 1 i d s                   ",
"                    w w 7 < <           < i a s                 ",
"                    1 <                   @ * 4                 ",
"                                                                ",
"                                                                ",
"                                                                ",
"                                                                ",
"                                                                ",
"                                                                ",
"                                                                ",
"                                                                ",
"                                                                ",
"                                                                ",
"                                                                ",
"                                                                ",
"                                                                ",
"                                                                ",
"                                                                ",
"                                                                ",
"                                                                "
};
