/* XPM */
static char *_d106e1bc4424fbfa7fbc98ae6383517zloA8itIxaq0oe9T[] = {
/* columns rows colors chars-per-pixel */
"32 32 30 1 ",
"  c #6EC8EA",
". c #6FC9EB",
"X c #71CBED",
"o c #73CBEC",
"O c #72CCED",
"+ c #75CDEF",
"@ c #7ACCEC",
"# c #76D1F3",
"$ c #7BD0F0",
"% c #81CFED",
"& c #85D1EF",
"* c #87D1EE",
"= c #86D4F3",
"- c #81D4F4",
"; c #80D5F6",
": c #84D5F4",
"> c #89D5F2",
", c #8DD7F3",
"< c #8BD7F4",
"1 c #87D8F7",
"2 c #8AD8F5",
"3 c #8EDAF7",
"4 c #91D8F4",
"5 c #94D9F4",
"6 c #95DBF7",
"7 c #97DCF7",
"8 c #98DBF4",
"9 c #9BDBF4",
"0 c #98DDF7",
"q c #9CDDF7",
/* pixels */
"::::::: ..#####      ##113333:::",
":    @<<..#####      ;;;$323<*6:",
":      <7######     ;07$#####   ",
":       $####      @07#########+",
":  X  ##6$;$2::   @90-##     ###",
"<< @  ##60007  23@*0#@#       ##",
"@@$6&<666:33$X  2090##X         ",
" ::$$67:,0;;;####70###          ",
"O+1#####-2###  ###;##           ",
"O+3;;;--:2##    ##6#@@          ",
" X33333363##   X3#;4856@O       ",
" O;:####36##+ @40;-   %<O       ",
" X$$####$q1#$;;6<##    %<       ",
" o2#####;76#;:;3###     $       ",
" 3@#####@67363<7###     $$  @   ",
" @;####@$$@@@  ,###    @66  @   ",
"@5:$##@@@      4####X  ;96 @@  #",
"<<X@66<5@  #   4#####$#$q660;###",
"-   #-55@X     -<####;;$<#;:;;6<",
":  ###X: @      36663333#####:;<",
"<##### ; @     ##3;6:X 3$####:,<",
"<X####@2@       @3###  $O#####<6",
"-X####@55@      <:##   $@ ##@+-,",
":XX##$@,53     :; ##   @  ##X  -",
"<2XX##4<@$$   <4  ### $$&##    $",
":<XX#14@@ $$ ;4   ####2#<#    X$",
"O2<137@    ,45:X  ###3326732, =@",
"+13663     @455$$;1##377:   <3:;",
"X@;;$3#### ;64   #;6136#      <-",
"= X ;33###1162#######3;#      , ",
"::  #33#111#<#     #;4-#     <- ",
":::;11111###1#     ##:644<::<,  "
};
